<svg width="143" height="23" viewBox="0 0 143 23" fill="none" xmlns="http://www.w3.org/2000/svg">
<path d="M0.298676 22.5399V1.04621H4.12004C5.66069 1.04621 6.84198 1.54772 7.66389 2.55076C8.50613 3.53335 8.92751 5.32438 8.92751 7.92404V8.07757C8.92751 10.6771 8.50613 12.4685 7.66389 13.4512C6.84198 14.4338 5.66069 14.9246 4.12004 14.9246H2.76442V22.5399H0.298676ZM6.49277 8.47681V7.52504C6.49277 4.51595 5.70186 3.0112 4.12004 3.0112H2.76442V12.9903H4.12004C5.70186 12.9903 6.49277 11.4859 6.49277 8.47681ZM11.6479 22.5399V1.04621H15.4693C16.9896 1.04621 18.1709 1.52729 19.0131 2.48925C19.8553 3.45147 20.2767 5.18124 20.2767 7.67837V7.83196C20.2767 10.9433 19.5163 12.9188 17.9965 13.7579L20.5537 22.5399H18.027L15.6233 14.3106H14.1131V22.5399H11.6479ZM17.842 8.13907V7.21793C17.842 5.64169 17.6265 4.54658 17.1949 3.93255C16.7842 3.31832 16.2088 3.0112 15.4693 3.0112H14.1131V12.3762H15.4693C17.0511 12.3762 17.842 10.9641 17.842 8.13907ZM32.9033 7.46354V16.1223C32.9033 18.7219 32.4824 20.5234 31.6402 21.5263C30.8183 22.509 29.6268 23.0003 28.0653 23.0003C26.5247 23.0003 25.3327 22.509 24.4905 21.5263C23.6686 20.5234 23.2579 18.7219 23.2579 16.1223V7.46354C23.2579 4.86388 23.6686 3.07265 24.4905 2.09006C25.3327 1.08703 26.5247 0.58551 28.0653 0.58551C29.6268 0.58551 30.8183 1.08703 31.6402 2.09006C32.4824 3.07265 32.9033 4.86388 32.9033 7.46354ZM30.4691 16.5826V7.00289C30.4691 4.05525 29.6782 2.58138 28.0958 2.58138C27.3359 2.58138 26.7402 2.89869 26.3087 3.53336C25.898 4.16777 25.6926 5.32438 25.6926 7.00289V16.5826C25.6926 18.2615 25.898 19.418 26.3087 20.0528C26.7402 20.6872 27.3359 21.0046 28.0958 21.0046C29.6782 21.0046 30.4691 19.5306 30.4691 16.5826ZM37.0988 18.6098C37.1806 19.5717 37.3245 20.2268 37.5298 20.5746C37.756 20.9021 38.0539 21.0659 38.4239 21.0659C39.2046 21.0659 39.595 20.1142 39.595 18.2103V1.04621H42.0292V17.7189C42.0292 21.2398 40.7865 23.0003 38.3004 23.0003C37.4785 23.0003 36.7287 22.6935 36.0507 22.079C35.3934 21.4447 35.0031 20.3905 34.8796 18.9166L37.0988 18.6098ZM48.2208 12.8062V20.5746H53.5833V22.5399H45.7556V1.04621H53.4908V3.0112H48.2208V10.8409H53.0282V12.8062H48.2208ZM55.4437 3.0112V1.04621H63.8565V3.0112H60.8672V22.5399H58.433V3.0112H55.4437ZM75.5605 7.46354V16.1223C75.5605 18.7219 75.1406 20.5234 74.2974 21.5263C73.4754 22.509 72.285 23.0003 70.7225 23.0003C69.1834 23.0003 67.991 22.509 67.1492 21.5263C66.3278 20.5234 65.9156 18.7219 65.9156 16.1223V7.46354C65.9156 4.86388 66.3278 3.07265 67.1492 2.09006C67.991 1.08703 69.1834 0.58551 70.7225 0.58551C72.285 0.58551 73.4754 1.08703 74.2974 2.09006C75.1406 3.07265 75.5605 4.86388 75.5605 7.46354ZM73.1268 16.5826V7.00289C73.1268 4.05525 72.3364 2.58138 70.7541 2.58138C69.9931 2.58138 69.3979 2.89869 68.9664 3.53336C68.5567 4.16777 68.3498 5.32438 68.3498 7.00289V16.5826C68.3498 18.2615 68.5567 19.418 68.9664 20.0528C69.3979 20.6872 69.9931 21.0046 70.7541 21.0046C72.3364 21.0046 73.1268 19.5306 73.1268 16.5826ZM85.7513 16.6136C85.7513 18.2924 85.9465 19.449 86.3369 20.0833C86.7288 20.6973 87.2828 21.0046 88.002 21.0046C88.7213 21.0046 89.2555 20.7384 89.6042 20.206C89.9747 19.6533 90.2212 18.6199 90.3432 17.1049L92.5015 17.3812C92.3159 19.4692 91.8432 20.9331 91.0843 21.7722C90.3432 22.5911 89.2753 23.0003 87.878 23.0003C86.4807 23.0003 85.3731 22.4988 84.5512 21.4959C83.7293 20.4924 83.3176 18.6504 83.3176 15.9686V7.61713C83.3176 4.93558 83.7293 3.09309 84.5512 2.09006C85.3731 1.08703 86.4705 0.58551 87.8485 0.58551C89.2453 0.58551 90.3021 0.943887 91.0213 1.66024C91.7624 2.37674 92.2133 3.65606 92.3769 5.49835L90.1282 6.05112C90.0042 4.74098 89.7679 3.84027 89.4192 3.34914C89.0898 2.83723 88.5871 2.58138 87.9095 2.58138C87.2513 2.58138 86.7288 2.90888 86.3369 3.56398C85.9465 4.19859 85.7513 5.37564 85.7513 7.09497V16.6136ZM102.331 1.04621H104.767V16.1223C104.767 18.7219 104.345 20.5234 103.504 21.5263C102.682 22.509 101.509 23.0003 99.9902 23.0003C98.4709 23.0003 97.2881 22.509 96.4469 21.5263C95.6249 20.5234 95.2132 18.7219 95.2132 16.1223V1.04621H97.649V16.5826C97.649 18.2412 97.8538 19.3977 98.2635 20.0528C98.6757 20.6872 99.2394 21.0046 99.9587 21.0046C100.7 21.0046 101.273 20.6872 101.685 20.0528C102.116 19.3977 102.331 18.2412 102.331 16.5826V1.04621ZM108.584 22.5399V1.04621H112.406C113.926 1.04621 115.106 1.52729 115.949 2.48925C116.791 3.45147 117.213 5.18124 117.213 7.67837V7.83196C117.213 10.9433 116.452 12.9188 114.933 13.7579L117.49 22.5399H114.964L112.56 14.3106H111.05V22.5399H108.584ZM114.779 8.13907V7.21793C114.779 5.64169 114.562 4.54658 114.13 3.93255C113.72 3.31832 113.145 3.0112 112.406 3.0112H111.05V12.3762H112.406C113.987 12.3762 114.779 10.9641 114.779 8.13907ZM127.252 17.7189C127.252 16.0812 126.696 14.8227 125.586 13.9425L123.121 12.1308C121.273 10.8206 120.348 8.88625 120.348 6.32741C120.348 4.19864 120.748 2.71448 121.55 1.87522C122.372 1.01538 123.482 0.58551 124.879 0.58551C126.296 0.58551 127.395 0.984755 128.176 1.78314C128.956 2.56095 129.429 3.98361 129.593 6.05112L127.252 6.57307C127.169 3.95298 126.398 2.64284 124.94 2.64284C123.501 2.64284 122.782 3.75838 122.782 5.98967C122.782 6.97227 122.884 7.77065 123.091 8.38468C123.316 8.99881 123.738 9.55149 124.355 10.0428L126.789 11.8545C127.364 12.2637 127.825 12.6526 128.176 13.0212C128.525 13.3898 128.854 13.983 129.161 14.8019C129.491 15.6005 129.654 16.5522 129.654 17.6576C129.654 19.6229 129.222 21.0046 128.361 21.8026C127.518 22.6012 126.367 23.0003 124.908 23.0003C123.45 23.0003 122.309 22.5297 121.489 21.5877C120.667 20.6461 120.163 18.9678 119.977 16.5522L122.289 16.1532C122.372 17.8928 122.618 19.1315 123.028 19.8683C123.46 20.6055 124.057 20.9736 124.816 20.9736C126.44 20.9736 127.252 19.8891 127.252 17.7189ZM142.273 7.46354V16.1223C142.273 18.7219 141.851 20.5234 141.008 21.5263C140.188 22.509 138.995 23.0003 137.435 23.0003C135.894 23.0003 134.701 22.509 133.859 21.5263C133.038 20.5234 132.626 18.7219 132.626 16.1223V7.46354C132.626 4.86388 133.038 3.07265 133.859 2.09006C134.701 1.08703 135.894 0.58551 137.435 0.58551C138.995 0.58551 140.188 1.08703 141.008 2.09006C141.851 3.07265 142.273 4.86388 142.273 7.46354ZM139.837 16.5826V7.00289C139.837 4.05525 139.047 2.58138 137.464 2.58138C136.705 2.58138 136.108 2.89869 135.677 3.53336C135.267 4.16777 135.062 5.32438 135.062 7.00289V16.5826C135.062 18.2615 135.267 19.418 135.677 20.0528C136.108 20.6872 136.705 21.0046 137.464 21.0046C139.047 21.0046 139.837 19.5306 139.837 16.5826Z" fill="white"/>
</svg>
